<?xml version="1.0" standalone="no"?>
<!DOCTYPE svg PUBLIC "-//W3C//DTD SVG 20010904//EN"
 "http://www.w3.org/TR/2001/REC-SVG-20010904/DTD/svg10.dtd">
<svg version="1.0" xmlns="http://www.w3.org/2000/svg"
 width="16.000000pt" height="16.000000pt" viewBox="0 0 16.000000 16.000000"
 preserveAspectRatio="xMidYMid meet">
<metadata>
Created by potrace 1.11, written by Peter Selinger 2001-2013
</metadata>
<g transform="translate(0.000000,16.000000) scale(0.005714,-0.005714)"
fill="#000000" stroke="none">
<path d="M1135 2781 c0 -9 5 -23 10 -31 6 -8 15 -26 22 -40 6 -14 12 -19 12
-11 1 8 9 20 19 27 16 12 15 13 -7 14 -18 0 -21 3 -12 13 6 8 8 17 4 21 -4 4
-1 11 6 16 9 5 2 8 -21 8 -26 0 -34 -4 -33 -17z"/>
<path d="M1210 2780 c0 -11 5 -20 10 -20 6 0 10 9 10 20 0 11 -4 20 -10 20 -5
0 -10 -9 -10 -20z"/>
<path d="M2378 2774 c2 -13 8 -24 13 -24 5 0 9 -6 9 -13 0 -7 7 -22 15 -33 13
-16 14 -16 9 -1 -4 11 -1 17 10 17 9 0 16 5 16 10 0 6 -7 10 -15 10 -18 0 -18
1 -6 33 9 23 8 25 -23 25 -29 0 -32 -3 -28 -24z"/>
<path d="M2450 2779 c0 -24 23 -21 28 4 2 10 -3 17 -12 17 -10 0 -16 -9 -16
-21z"/>
<path d="M1020 2763 c0 -5 7 -16 14 -26 13 -17 14 -16 19 2 3 12 -1 22 -10 25
-19 8 -23 7 -23 -1z"/>
<path d="M2270 2761 c0 -5 3 -17 6 -26 5 -13 8 -14 15 -3 12 19 11 25 -6 32
-8 3 -15 1 -15 -3z"/>
<path d="M791 2434 c0 -11 3 -14 6 -6 3 7 2 16 -1 19 -3 4 -6 -2 -5 -13z"/>
<path d="M1873 2405 c0 -27 2 -38 4 -22 2 15 2 37 0 50 -2 12 -4 0 -4 -28z"/>
<path d="M1204 2374 c3 -9 6 -18 6 -20 0 -2 7 -4 15 -4 18 0 19 12 3 28 -17
17 -31 15 -24 -4z"/>
<path d="M2450 2376 c0 -15 18 -31 26 -23 7 7 -7 37 -17 37 -5 0 -9 -6 -9 -14z"/>
<path d="M1871 2317 c1 -26 3 -27 6 -8 4 19 7 21 14 10 7 -12 9 -11 9 2 0 9
-7 19 -15 23 -12 4 -15 -2 -14 -27z"/>
<path d="M1872 2260 c0 -14 2 -19 5 -12 2 6 2 18 0 25 -3 6 -5 1 -5 -13z"/>
<path d="M13 2193 c-20 -7 -15 -31 7 -38 29 -9 42 2 30 26 -11 19 -16 21 -37
12z"/>
<path d="M1234 2178 c11 -19 52 -35 62 -25 3 3 3 14 0 24 -4 14 -16 19 -40 19
-30 0 -32 -2 -22 -18z"/>
<path d="M2470 2193 c0 -10 43 -43 56 -43 18 0 24 13 14 30 -8 13 -70 24 -70
13z"/>
<path d="M620 2126 c0 -27 -8 -31 -90 -41 -30 -4 -72 -16 -92 -26 -21 -11 -44
-19 -52 -19 -8 0 -23 -10 -33 -23 -24 -31 -24 -173 1 -208 14 -21 18 -22 31
-9 8 8 25 36 37 61 l23 45 -20 17 c-19 16 -19 16 13 10 26 -4 32 -2 32 11 0
10 4 15 9 12 5 -3 11 1 14 8 3 8 18 23 32 32 22 14 28 15 35 4 6 -9 2 -20 -12
-31 -23 -21 -15 -43 12 -34 10 3 22 0 26 -7 4 -6 2 -14 -4 -16 -7 -2 -12 -8
-12 -13 0 -6 10 -3 21 5 12 8 28 12 37 9 10 -4 13 -1 10 8 -3 8 -15 14 -27 13
-25 -1 -26 4 -6 30 8 11 15 31 15 44 0 23 3 24 41 19 25 -3 50 0 67 9 15 8 36
14 48 14 25 0 84 -59 85 -85 1 -16 3 -15 9 5 4 14 5 36 2 49 -5 22 -3 23 39
18 101 -13 127 -22 180 -58 31 -21 59 -45 62 -54 7 -16 27 -21 27 -6 0 4 -16
23 -35 42 -19 19 -35 39 -35 45 0 7 -12 15 -27 19 -15 3 -32 12 -37 19 -6 7
-53 26 -103 41 -70 22 -90 31 -82 41 5 7 6 15 2 17 -15 10 -108 3 -115 -8 -5
-6 -8 -5 -8 3 0 8 -19 12 -60 12 -57 0 -60 -1 -60 -24z"/>
<path d="M963 2143 c15 -2 39 -2 55 0 15 2 2 4 -28 4 -30 0 -43 -2 -27 -4z"/>
<path d="M1088 2143 c12 -2 32 -2 45 0 12 2 2 4 -23 4 -25 0 -35 -2 -22 -4z"/>
<path d="M1870 2124 c0 -21 -8 -29 -47 -45 -81 -34 -94 -42 -135 -84 -23 -22
-45 -40 -51 -40 -5 0 -15 -18 -22 -40 -6 -22 -16 -49 -22 -60 -16 -31 -34 -85
-47 -145 -8 -36 -21 -65 -40 -83 -31 -32 -28 -51 4 -22 21 19 21 19 15 -21
-14 -90 -17 -122 -16 -174 1 -30 6 -59 11 -64 12 -12 13 -76 2 -76 -10 0 -6
-115 4 -132 5 -7 9 -49 11 -93 1 -47 9 -97 19 -120 45 -107 119 -234 154 -262
8 -7 30 -20 49 -29 31 -15 35 -15 43 0 5 9 13 14 18 11 12 -7 50 53 50 78 0
16 7 14 57 -13 31 -17 60 -27 64 -23 5 5 29 7 54 5 36 -3 48 -9 54 -25 7 -18
8 -18 14 -3 4 10 11 14 17 11 5 -3 10 -2 10 4 0 6 9 15 20 21 15 8 23 6 39
-12 12 -12 23 -19 26 -16 3 3 -1 13 -10 21 -8 9 -15 17 -15 20 0 2 21 14 46
26 34 17 43 26 33 32 -10 6 -8 9 8 9 12 0 24 -4 27 -8 2 -4 23 -6 45 -4 33 3
41 8 41 24 0 10 4 17 9 14 11 -7 23 22 15 35 -3 5 0 9 7 9 7 0 9 3 6 7 -4 3
-31 5 -61 4 -53 -2 -53 -2 -49 26 10 75 28 140 41 155 14 16 17 14 39 -30 13
-26 30 -53 38 -61 12 -13 16 -11 25 14 6 16 10 38 9 49 -1 12 0 23 1 26 7 15
6 109 -1 104 -5 -3 -9 10 -9 28 -1 28 -2 30 -11 14 -8 -13 -8 -25 2 -42 11
-22 10 -27 -11 -46 -16 -15 -25 -18 -28 -10 -2 7 -9 9 -14 6 -6 -4 -8 -2 -4 4
3 6 2 13 -4 17 -34 21 -49 134 -32 244 7 46 32 70 32 31 0 -16 4 -20 15 -16 9
3 24 -3 35 -14 22 -22 23 -20 20 26 -1 18 3 35 9 39 7 3 11 44 11 98 0 56 -4
87 -9 78 -5 -7 -6 -32 -3 -53 l5 -40 -27 17 c-23 16 -26 16 -26 1 0 -9 -6 -16
-14 -16 -32 0 -46 13 -46 41 0 17 -7 40 -15 53 -9 13 -20 46 -25 72 -9 53 -36
132 -51 150 -16 20 -161 105 -171 102 -6 -2 11 -15 38 -29 43 -21 53 -33 86
-99 30 -60 39 -91 44 -155 3 -44 8 -83 11 -87 2 -5 -5 -8 -15 -8 -17 0 -19 -6
-17 -42 5 -63 16 -102 34 -115 9 -6 13 -15 9 -19 -4 -4 -14 -1 -23 6 -13 11
-15 9 -15 -14 0 -23 3 -26 20 -21 18 6 20 2 20 -39 0 -34 -5 -48 -19 -55 -30
-17 -34 -56 -10 -108 17 -37 19 -51 10 -70 -6 -13 -11 -38 -11 -55 0 -26 -2
-29 -15 -18 -22 18 -30 5 -16 -26 12 -26 8 -39 -10 -39 -9 0 -21 -17 -51 -73
-10 -19 -9 -25 3 -32 22 -14 -18 -49 -61 -52 -32 -3 -35 -1 -34 22 1 14 5 34
9 45 5 12 -3 8 -20 -12 -15 -18 -34 -33 -41 -33 -17 0 -17 -5 -2 -30 17 -26 6
-34 -37 -26 -29 6 -35 11 -35 31 0 20 -5 25 -25 25 -16 0 -25 6 -25 16 0 12 7
15 30 12 24 -4 30 -1 30 14 0 11 -7 18 -20 18 -11 0 -20 -4 -20 -10 0 -14 -27
-12 -33 3 -3 8 -8 9 -15 2 -8 -8 -7 -18 3 -39 19 -37 20 -36 -15 -36 -20 0
-28 -4 -24 -13 2 -7 -2 -27 -11 -43 -8 -16 -15 -25 -15 -21 0 4 -11 -4 -25
-18 -37 -36 -49 -32 -41 15 6 38 5 40 -13 30 -29 -15 -41 -12 -51 13 -5 12
-18 36 -29 52 -32 47 -28 65 17 66 l37 1 -40 12 c-50 15 -70 52 -85 156 -14
92 -14 418 -1 434 6 7 7 22 4 35 -11 41 29 219 68 306 8 17 24 38 36 48 13 10
23 28 23 39 0 11 8 22 20 25 11 3 20 9 20 13 0 11 59 9 66 -2 3 -5 0 -15 -6
-23 -16 -20 -3 -19 16 0 18 17 34 20 34 5 0 -5 5 -10 10 -10 6 0 10 7 10 15 0
14 -4 16 -37 19 -17 2 -16 11 4 44 23 36 32 42 68 42 17 0 39 7 49 15 11 8 29
15 41 15 24 0 81 -55 87 -85 3 -12 8 -1 12 28 7 42 11 47 34 47 38 0 153 -48
186 -79 l29 -26 -19 33 c-10 17 -22 32 -27 32 -4 0 -18 10 -31 23 -29 29 -118
70 -176 81 -9 2 -14 12 -12 25 2 15 -2 21 -17 21 -11 0 -23 -5 -26 -10 -4 -7
-12 -7 -25 0 -10 5 -50 10 -89 10 -69 0 -71 -1 -71 -26z"/>
<path d="M2218 2143 c12 -2 32 -2 45 0 12 2 2 4 -23 4 -25 0 -35 -2 -22 -4z"/>
<path d="M2328 2143 c12 -2 32 -2 45 0 12 2 2 4 -23 4 -25 0 -35 -2 -22 -4z"/>
<path d="M970 2120 c0 -5 5 -10 11 -10 5 0 7 5 4 10 -3 6 -8 10 -11 10 -2 0
-4 -4 -4 -10z"/>
<path d="M2230 2110 c8 -5 20 -10 25 -10 6 0 3 5 -5 10 -8 5 -19 10 -25 10 -5
0 -3 -5 5 -10z"/>
<path d="M1060 2080 c0 -5 9 -10 20 -10 11 0 20 5 20 10 0 6 -9 10 -20 10 -11
0 -20 -4 -20 -10z"/>
<path d="M960 1981 c0 -6 5 -13 10 -16 6 -3 10 1 10 9 0 9 -4 16 -10 16 -5 0
-10 -4 -10 -9z"/>
<path d="M2202 1981 c4 -13 18 -16 19 -4 0 4 -5 9 -11 12 -7 2 -11 -2 -8 -8z"/>
<path d="M1030 1948 c0 -19 2 -20 10 -8 13 19 13 30 0 30 -5 0 -10 -10 -10
-22z"/>
<path d="M2270 1951 c0 -11 5 -23 10 -26 6 -3 10 1 10 9 0 9 0 19 1 23 0 4 -4
9 -10 11 -6 2 -11 -5 -11 -17z"/>
<path d="M688 1943 c7 -3 16 -2 19 1 4 3 -2 6 -13 5 -11 0 -14 -3 -6 -6z"/>
<path d="M1938 1943 c7 -3 16 -2 19 1 4 3 -2 6 -13 5 -11 0 -14 -3 -6 -6z"/>
<path d="M860 1921 c0 -5 8 -11 18 -14 9 -2 26 -8 37 -12 11 -4 7 2 -10 14
-32 23 -45 26 -45 12z"/>
<path d="M1060 1900 c0 -5 5 -10 10 -10 6 0 10 5 10 10 0 6 -4 10 -10 10 -5 0
-10 -4 -10 -10z"/>
<path d="M2305 1900 c3 -5 8 -10 11 -10 2 0 4 5 4 10 0 6 -5 10 -11 10 -5 0
-7 -4 -4 -10z"/>
<path d="M1108 1882 c12 -12 19 -28 16 -37 -4 -8 -2 -15 4 -15 6 0 12 5 14 11
5 14 42 4 63 -17 13 -14 15 -14 15 0 0 8 -5 27 -12 41 -9 21 -18 25 -47 23
-20 0 -45 2 -55 7 -17 8 -17 6 2 -13z"/>
<path d="M2354 1881 c10 -11 16 -27 13 -36 -4 -8 -2 -15 3 -15 6 0 10 7 10 15
0 13 4 14 20 5 11 -6 20 -7 20 -2 0 17 -26 40 -55 47 -29 6 -29 6 -11 -14z"/>
<path d="M1792 1868 c5 -15 28 -23 28 -10 0 5 -7 13 -16 16 -10 4 -14 1 -12
-6z"/>
<path d="M970 1855 c8 -10 15 -24 16 -32 2 -8 9 -22 17 -31 16 -20 22 -92 7
-92 -5 0 -10 -8 -10 -19 0 -10 -12 -26 -26 -36 -18 -11 -24 -23 -21 -36 4 -15
0 -19 -19 -19 -17 0 -24 -6 -24 -20 0 -14 -13 -26 -42 -39 -59 -26 -124 -40
-140 -30 -7 5 -32 9 -55 9 -38 0 -43 -3 -49 -26 -4 -15 -3 -61 2 -103 7 -58
12 -76 24 -74 8 1 41 4 72 8 l56 6 -1 44 c-3 59 15 76 43 44 21 -24 21 -24 15
-1 -5 16 -2 22 9 22 9 0 16 -4 16 -8 0 -4 9 -8 19 -9 13 -1 21 7 25 23 4 13
12 24 19 25 6 0 27 2 46 4 19 1 42 -2 52 -8 21 -13 51 7 42 29 -3 8 0 14 7 14
6 0 8 -4 5 -10 -9 -14 8 -12 30 3 14 11 15 16 5 22 -8 5 -15 4 -18 -3 -3 -9
-9 -9 -23 -2 -21 12 -26 48 -6 55 7 3 13 29 15 67 2 34 5 65 7 68 8 13 -27
106 -49 131 -26 30 -90 53 -66 24z m-217 -461 c3 -3 3 -12 0 -20 -4 -11 -9
-12 -19 -3 -8 6 -14 15 -14 20 0 10 24 12 33 3z"/>
<path d="M1181 1777 c-17 -17 -13 -27 9 -27 14 0 20 -7 20 -24 0 -13 -5 -27
-10 -29 -6 -3 -5 -4 2 -3 19 4 23 82 5 89 -8 3 -20 0 -26 -6z"/>
<path d="M2422 1769 c-11 -16 -9 -19 8 -19 11 0 20 6 20 14 0 24 -15 26 -28 5z"/>
<path d="M2450 1730 c0 -8 5 -22 10 -30 9 -13 10 -13 10 0 0 8 -5 22 -10 30
-9 13 -10 13 -10 0z"/>
<path d="M1718 1633 c7 -3 16 -2 19 1 4 3 -2 6 -13 5 -11 0 -14 -3 -6 -6z"/>
<path d="M1111 1544 c0 -11 3 -14 6 -6 3 7 2 16 -1 19 -3 4 -6 -2 -5 -13z"/>
<path d="M740 1529 c0 -5 9 -9 20 -9 11 0 20 2 20 4 0 2 -9 6 -20 9 -11 3 -20
1 -20 -4z"/>
<path d="M1217 1494 c-4 -4 -7 -14 -7 -23 0 -11 3 -12 11 -4 6 6 10 16 7 23
-2 6 -7 8 -11 4z"/>
<path d="M1160 1433 c0 -5 5 -15 10 -23 8 -13 10 -13 10 2 0 9 8 19 18 21 10
3 6 5 -10 6 -16 0 -28 -2 -28 -6z"/>
<path d="M984 1385 c-4 -8 -3 -23 0 -32 4 -9 1 -21 -6 -26 -9 -6 -8 -7 4 -3
10 3 20 0 24 -6 4 -7 10 -5 16 6 11 20 42 21 58 1 7 -8 16 -12 22 -9 5 3 16 0
24 -7 17 -14 26 -9 16 8 -8 13 -129 83 -143 83 -5 0 -12 -7 -15 -15z"/>
<path d="M1640 1370 c0 -5 5 -10 10 -10 6 0 10 -13 10 -30 0 -16 5 -30 10 -30
6 0 10 -7 10 -16 0 -9 6 -14 13 -11 20 6 8 70 -16 89 -25 20 -37 22 -37 8z"/>
<path d="M991 1244 c6 -8 9 -27 7 -43 -2 -17 -1 -28 4 -25 4 3 17 -16 28 -42
16 -36 18 -54 11 -74 -5 -15 -7 -39 -4 -53 4 -20 1 -27 -11 -27 -9 0 -16 7
-16 16 0 8 -4 12 -10 9 -5 -3 -10 -17 -10 -29 0 -28 -17 -63 -45 -92 -11 -12
-35 -38 -53 -58 -30 -33 -62 -51 -47 -26 3 5 2 17 -3 26 -8 15 -11 14 -29 -5
-13 -14 -26 -19 -37 -15 -16 6 -17 5 -5 -14 19 -30 1 -46 -35 -32 -19 7 -26
15 -22 25 5 14 -6 20 -28 16 -4 -1 -14 3 -22 10 -18 14 -39 2 -25 -15 15 -18
3 -26 -38 -26 -64 0 -256 83 -247 106 6 17 -8 18 -35 4 -17 -10 -18 -19 -14
-107 5 -102 11 -117 51 -127 33 -9 48 1 30 19 -13 13 -22 155 -10 155 12 0 62
-30 73 -44 8 -9 24 -16 37 -16 33 0 30 -14 -7 -40 -37 -27 -56 -69 -37 -82 10
-6 10 -8 -1 -8 -8 0 -12 -2 -9 -5 7 -8 38 5 38 16 0 5 8 18 18 29 9 11 16 24
15 28 -3 11 29 42 42 42 7 0 18 -7 25 -15 10 -12 10 -15 0 -15 -8 0 -10 -3 -7
-6 4 -4 -3 -15 -14 -25 -21 -18 -17 -44 5 -36 7 3 19 1 27 -3 11 -7 10 -13 -5
-29 -11 -12 -14 -21 -7 -21 6 0 14 7 17 15 8 20 34 19 34 0 0 -16 38 -35 68
-35 9 0 22 11 29 25 10 23 9 25 -15 26 -15 1 -34 1 -43 0 -9 -1 -19 5 -23 14
-4 11 -12 14 -27 10 -12 -4 -20 -3 -17 1 32 69 22 65 113 50 6 -1 16 -5 23 -9
7 -5 12 -4 12 2 0 7 23 11 53 11 46 0 56 -3 65 -22 6 -13 11 -17 11 -10 1 20
53 61 78 62 12 0 36 12 53 27 27 22 37 25 59 17 38 -13 101 -6 101 12 0 8 9
14 20 14 13 0 20 7 20 20 0 11 -6 20 -12 20 -9 0 -8 4 2 10 18 12 11 13 -61
10 l-47 -1 14 58 c8 32 14 70 14 84 0 14 9 34 19 43 18 17 19 16 26 -13 8 -35
53 -91 74 -91 11 0 13 11 8 50 -4 28 -2 52 4 56 5 3 7 14 4 25 -3 10 -8 39
-10 65 -4 51 -25 87 -25 43 0 -14 5 -30 12 -37 10 -10 7 -18 -14 -38 l-25 -26
-27 28 c-14 16 -26 32 -26 37 0 18 -97 105 -123 109 -22 4 -25 3 -16 -8z m-62
-430 c-14 -18 -24 -11 -15 11 3 9 11 13 16 10 8 -5 7 -11 -1 -21z"/>
<path d="M1154 1217 c4 -51 11 -66 25 -51 4 5 -1 29 -11 54 l-19 45 5 -48z"/>
<path d="M2390 1238 c0 -35 17 -78 30 -78 12 0 4 41 -16 79 l-14 26 0 -27z"/>
<path d="M791 1144 c0 -11 3 -14 6 -6 3 7 2 16 -1 19 -3 4 -6 -2 -5 -13z"/>
<path d="M1870 1109 c0 -22 4 -38 8 -35 8 5 4 76 -4 76 -2 0 -4 -18 -4 -41z"/>
<path d="M631 1084 c0 -11 3 -14 6 -6 3 7 2 16 -1 19 -3 4 -6 -2 -5 -13z"/>
<path d="M637 1039 c7 -7 15 -10 18 -7 3 3 -2 9 -12 12 -14 6 -15 5 -6 -5z"/>
<path d="M1870 1040 c0 -6 7 -10 15 -10 8 0 15 2 15 4 0 2 -7 6 -15 10 -8 3
-15 1 -15 -4z"/>
<path d="M638 1013 c6 -2 18 -2 25 0 6 3 1 5 -13 5 -14 0 -19 -2 -12 -5z"/>
<path d="M1872 983 c1 -37 1 -37 5 -6 3 19 11 34 21 36 12 3 10 5 -5 6 -20 1
-23 -3 -21 -36z"/>
<path d="M1212 899 c2 -6 8 -10 13 -10 5 0 11 4 13 10 2 6 -4 11 -13 11 -9 0
-15 -5 -13 -11z"/>
<path d="M0 880 c0 -17 6 -20 38 -19 20 0 31 3 25 6 -7 2 -13 11 -13 19 0 8
-10 14 -25 14 -18 0 -25 -5 -25 -20z"/>
<path d="M1759 899 c0 -2 -2 -12 -4 -21 -2 -13 3 -18 17 -18 18 0 19 2 7 18
-7 9 -15 19 -16 21 -2 2 -3 2 -4 0z"/>
<path d="M2515 870 c-4 -6 6 -10 22 -10 22 0 25 2 13 10 -19 12 -27 12 -35 0z"/>
<path d="M632 848 c3 -7 26 -15 51 -18 41 -5 47 -3 47 12 0 11 -7 18 -20 18
-11 0 -20 -4 -20 -10 0 -5 -7 -10 -15 -10 -8 0 -15 5 -15 10 0 6 -7 10 -16 10
-9 0 -14 -6 -12 -12z"/>
<path d="M1025 760 c-3 -5 -1 -10 4 -10 6 0 11 5 11 10 0 6 -2 10 -4 10 -3 0
-8 -4 -11 -10z"/>
<path d="M1095 730 c-10 -11 -16 -23 -13 -25 9 -10 58 17 58 32 0 19 -24 16
-45 -7z"/>
<path d="M2336 728 c-9 -12 -14 -24 -12 -26 7 -7 44 17 50 33 9 23 -21 18 -38
-7z"/>
<path d="M960 686 c0 -9 5 -16 10 -16 6 0 10 4 10 9 0 6 -4 13 -10 16 -5 3
-10 -1 -10 -9z"/>
<path d="M1030 660 c0 -19 3 -21 12 -12 9 9 9 15 0 24 -9 9 -12 7 -12 -12z"/>
<path d="M2270 654 c0 -8 5 -12 10 -9 6 3 10 10 10 16 0 5 -4 9 -10 9 -5 0
-10 -7 -10 -16z"/>
<path d="M1850 642 c-16 -6 -40 -27 -40 -36 0 -3 7 -6 15 -6 8 0 15 5 15 10 0
6 7 10 15 10 8 0 15 -9 15 -20 0 -12 7 -20 18 -20 9 0 27 -3 40 -6 16 -5 22
-2 22 9 0 8 6 17 13 20 20 7 1 18 -34 19 -19 0 -41 6 -49 13 -8 7 -22 10 -30
7z"/>
<path d="M865 620 c3 -5 13 -10 21 -10 8 0 12 5 9 10 -3 6 -13 10 -21 10 -8 0
-12 -4 -9 -10z"/>
<path d="M2110 620 c20 -13 43 -13 35 0 -3 6 -16 10 -28 10 -18 0 -19 -2 -7
-10z"/>
<path d="M2158 593 c7 -3 16 -2 19 1 4 3 -2 6 -13 5 -11 0 -14 -3 -6 -6z"/>
<path d="M1010 241 c0 -10 30 -24 37 -17 3 3 2 9 -2 15 -8 13 -35 15 -35 2z"/>
<path d="M2263 233 c9 -9 19 -14 23 -11 10 10 -6 28 -24 28 -15 0 -15 -1 1
-17z"/>
<path d="M1190 226 c0 -11 -9 -16 -28 -16 -22 0 -28 -4 -27 -19 1 -11 6 -25
12 -33 5 -7 13 -21 16 -31 6 -16 7 -16 27 0 20 17 20 18 2 21 -22 4 -20 35 5
64 10 11 11 18 4 23 -6 3 -11 -1 -11 -9z"/>
<path d="M2430 225 c0 -8 -12 -15 -29 -17 l-29 -3 21 -47 c12 -26 26 -48 30
-48 5 0 5 5 2 10 -3 6 1 10 9 10 9 0 16 5 16 10 0 6 -7 10 -16 10 -11 0 -14 5
-10 16 3 9 6 19 6 24 0 5 7 15 15 23 13 13 13 16 0 21 -9 3 -15 0 -15 -9z"/>
<path d="M1785 220 c-3 -5 -1 -10 4 -10 6 0 11 5 11 10 0 6 -2 10 -4 10 -3 0
-8 -4 -11 -10z"/>
<path d="M1210 190 c0 -11 5 -20 10 -20 6 0 10 9 10 20 0 11 -4 20 -10 20 -5
0 -10 -9 -10 -20z"/>
<path d="M2450 189 c0 -24 23 -21 28 4 2 10 -3 17 -12 17 -10 0 -16 -9 -16
-21z"/>
<path d="M1032 154 c11 -23 13 -24 19 -7 3 10 1 21 -5 25 -21 14 -26 8 -14
-18z"/>
<path d="M2270 173 c1 -18 18 -35 24 -24 4 6 4 16 1 21 -7 12 -25 13 -25 3z"/>
</g>
</svg>
