<?xml version="1.0" encoding="UTF-8" standalone="no"?>
<!-- Created with Inkscape (http://www.inkscape.org/) -->

<svg
   xmlns:dc="http://purl.org/dc/elements/1.1/"
   xmlns:cc="http://creativecommons.org/ns#"
   xmlns:rdf="http://www.w3.org/1999/02/22-rdf-syntax-ns#"
   xmlns:svg="http://www.w3.org/2000/svg"
   xmlns="http://www.w3.org/2000/svg"
   xmlns:sodipodi="http://sodipodi.sourceforge.net/DTD/sodipodi-0.dtd"
   xmlns:inkscape="http://www.inkscape.org/namespaces/inkscape"
   id="svg2383"
   sodipodi:docname="ted-Eyes-with-lashes_nobg.svg"
   viewBox="0 0 90.458 90.458"
   sodipodi:version="0.32"
   version="1.0"
   inkscape:output_extension="org.inkscape.output.svg.inkscape"
   inkscape:version="0.92.0 r15299"
   width="96.488533"
   height="96.488533">
  <defs
     id="defs22" />
  <sodipodi:namedview
     id="base"
     bordercolor="#666666"
     inkscape:pageshadow="2"
     guidetolerance="10"
     pagecolor="#ffffff"
     gridtolerance="10000"
     inkscape:window-height="865"
     inkscape:zoom="3.1815021"
     objecttolerance="10"
     borderopacity="1.0"
     inkscape:current-layer="layer1"
     inkscape:cx="6.4107591"
     inkscape:cy="45.229023"
     inkscape:window-y="25"
     inkscape:window-x="0"
     inkscape:window-width="1472"
     inkscape:pageopacity="0.0"
     inkscape:document-units="px"
     showgrid="false"
     inkscape:window-maximized="0" />
  <g
     id="layer1"
     inkscape:label="Layer 1"
     inkscape:groupmode="layer"
     transform="translate(816.66,-255.7)">
    <g
       transform="translate(-1187.66,-461.91874)"
       id="g208">
      <g
         transform="matrix(-1,0,0,1,831.69,-7.7153)"
         id="g175">
        <path
           inkscape:connector-curvature="0"
           transform="matrix(0.76269,0,0,0.71876,84.602,221.15)"
           style="fill:none;stroke:#000000;stroke-width:1.00000003pt"
           sodipodi:nodetypes="cc"
           d="m 390.01,758.95 c -2.89,-0.49 -5.3,-3.37 -5.06,-7.71"
           id="path172" />
        <path
           inkscape:connector-curvature="0"
           transform="matrix(0.76269,0,0,0.71876,87.493,219.71)"
           style="fill:none;stroke:#000000;stroke-width:1.00000003pt"
           sodipodi:nodetypes="cc"
           d="m 390.01,758.95 c -2.89,-0.49 -5.3,-3.37 -5.06,-7.71"
           id="path173" />
        <path
           inkscape:connector-curvature="0"
           transform="matrix(0.76269,0,0,0.71876,90.384,218.5)"
           style="fill:none;stroke:#000000;stroke-width:1.00000003pt"
           sodipodi:nodetypes="cc"
           d="m 390.01,758.95 c -2.89,-0.49 -5.3,-3.37 -5.06,-7.71"
           id="path174" />
      </g>
      <g
         transform="translate(1.1047,-7.7152)"
         id="g179">
        <path
           inkscape:connector-curvature="0"
           transform="matrix(0.76269,0,0,0.71876,84.602,221.15)"
           style="fill:none;stroke:#000000;stroke-width:1.00000003pt"
           sodipodi:nodetypes="cc"
           d="m 390.01,758.95 c -2.89,-0.49 -5.3,-3.37 -5.06,-7.71"
           id="path180" />
        <path
           inkscape:connector-curvature="0"
           transform="matrix(0.76269,0,0,0.71876,87.493,219.71)"
           style="fill:none;stroke:#000000;stroke-width:1.00000003pt"
           sodipodi:nodetypes="cc"
           d="m 390.01,758.95 c -2.89,-0.49 -5.3,-3.37 -5.06,-7.71"
           id="path181" />
        <path
           inkscape:connector-curvature="0"
           transform="matrix(0.76269,0,0,0.71876,90.384,218.5)"
           style="fill:none;stroke:#000000;stroke-width:1.00000003pt"
           sodipodi:nodetypes="cc"
           d="m 390.01,758.95 c -2.89,-0.49 -5.3,-3.37 -5.06,-7.71"
           id="path182" />
      </g>
      <path
         inkscape:connector-curvature="0"
         transform="matrix(1,0,0,0.73785,363.63,210.25)"
         style="fill:#ffffff;fill-rule:evenodd;stroke:#000000;stroke-width:1.00000003pt"
         sodipodi:nodetypes="ccs"
         d="m 88.583,751.18 c 0,-17.72 -35.433,-17.72 -35.433,0 0,17.72 35.433,17.72 35.433,0 z"
         id="path168" />
      <path
         inkscape:connector-curvature="0"
         transform="matrix(0.35097,0,0,0.41381,409.53,458.1)"
         style="fill-rule:evenodd;stroke:#000000;stroke-width:1.00000003pt"
         sodipodi:nodetypes="ccs"
         d="m 88.583,751.18 c 0,-17.72 -35.433,-17.72 -35.433,0 0,17.72 35.433,17.72 35.433,0 z"
         id="path169" />
      <path
         inkscape:connector-curvature="0"
         transform="matrix(1,0,0,0.73785,327.69,210.42)"
         style="fill:#ffffff;fill-rule:evenodd;stroke:#000000;stroke-width:1.00000003pt"
         sodipodi:nodetypes="ccs"
         d="m 88.583,751.18 c 0,-17.72 -35.433,-17.72 -35.433,0 0,17.72 35.433,17.72 35.433,0 z"
         id="path170" />
      <path
         inkscape:connector-curvature="0"
         transform="matrix(0.35097,0,0,0.41381,374.08,458.03)"
         style="fill-rule:evenodd;stroke:#000000;stroke-width:1.00000003pt"
         sodipodi:nodetypes="ccs"
         d="m 88.583,751.18 c 0,-17.72 -35.433,-17.72 -35.433,0 0,17.72 35.433,17.72 35.433,0 z"
         id="path171" />
    </g>
  </g>
  <metadata
     id="metadata19">
    <rdf:RDF>
      <cc:Work>
        <dc:format>image/svg+xml</dc:format>
        <dc:type
           rdf:resource="http://purl.org/dc/dcmitype/StillImage" />
        <cc:license
           rdf:resource="http://creativecommons.org/licenses/publicdomain/" />
        <dc:publisher>
          <cc:Agent
             rdf:about="http://openclipart.org/">
            <dc:title>Openclipart</dc:title>
          </cc:Agent>
        </dc:publisher>
        <dc:title></dc:title>
        <dc:date>2007-09-15T04:22:51</dc:date>
        <dc:description />
        <dc:source>https://openclipart.org/detail/5443/eyes-with-lashes-by-ted</dc:source>
        <dc:creator>
          <cc:Agent>
            <dc:title>ted</dc:title>
          </cc:Agent>
        </dc:creator>
        <dc:subject>
          <rdf:Bag>
            <rdf:li>eye</rdf:li>
            <rdf:li>girl</rdf:li>
            <rdf:li>lashes</rdf:li>
            <rdf:li>square</rdf:li>
          </rdf:Bag>
        </dc:subject>
      </cc:Work>
      <cc:License
         rdf:about="http://creativecommons.org/licenses/publicdomain/">
        <cc:permits
           rdf:resource="http://creativecommons.org/ns#Reproduction" />
        <cc:permits
           rdf:resource="http://creativecommons.org/ns#Distribution" />
        <cc:permits
           rdf:resource="http://creativecommons.org/ns#DerivativeWorks" />
      </cc:License>
    </rdf:RDF>
  </metadata>
</svg>
